<svg width="19" height="19" viewBox="0 0 19 19" fill="none" xmlns="http://www.w3.org/2000/svg">
<rect width="19" height="19" rx="9" fill="#37B76C"/>
<path d="M12.2232 5H6.6769C6.46877 5 6.30005 5.16872 6.30005 5.37685C6.30005 6.57621 6.77649 7.72644 7.62457 8.57452L8.1732 9.12315C8.22768 9.17763 8.25492 9.20487 8.27443 9.23103C8.39339 9.39061 8.39339 9.60939 8.27443 9.76897C8.25492 9.79513 8.22768 9.82237 8.1732 9.87685L7.62457 10.4255C6.77649 11.2736 6.30005 12.4238 6.30005 13.6232C6.30005 13.8313 6.46877 14 6.6769 14H12.2232C12.4313 14 12.6 13.8313 12.6 13.6232C12.6 12.4238 12.1236 11.2736 11.2755 10.4255L10.7269 9.87685C10.6724 9.82237 10.6452 9.79513 10.6257 9.76897C10.5067 9.60939 10.5067 9.39061 10.6257 9.23103C10.6452 9.20487 10.6724 9.17763 10.7269 9.12315L11.2755 8.57452C12.1236 7.72644 12.6 6.57621 12.6 5.37685C12.6 5.16872 12.4313 5 12.2232 5Z" stroke="white" stroke-width="0.9" stroke-linecap="round" stroke-linejoin="round"/>
</svg>
